# Blender v2.80 (sub 75) OBJ File: 'RoadItems.blend'
# www.blender.org
mtllib Cone.mtl
o Cube.002_Cube.001
v -0.195023 -0.001531 0.195023
v -0.195023 -0.001669 0.243000
v -0.243000 -0.001669 0.195023
v -0.195023 0.041669 0.243000
v -0.195023 0.047000 0.195023
v -0.243000 0.041669 0.195023
v -0.195023 -0.001531 -0.195023
v -0.243000 -0.001669 -0.195023
v -0.195023 -0.001669 -0.243000
v -0.195023 0.047000 -0.195023
v -0.195023 0.041669 -0.243000
v -0.243000 0.041669 -0.195023
v 0.195023 -0.001531 0.195023
v 0.243000 -0.001669 0.195023
v 0.195023 -0.001669 0.243000
v 0.195023 0.047000 0.195023
v 0.195023 0.041669 0.243000
v 0.243000 0.041669 0.195023
v 0.195023 -0.001531 -0.195023
v 0.195023 -0.001669 -0.243000
v 0.243000 -0.001669 -0.195023
v 0.195023 0.047000 -0.195023
v 0.243000 0.041669 -0.195023
v 0.195023 0.041669 -0.243000
v 0.000000 0.029458 -0.180000
v 0.000000 0.797458 -0.033268
v 0.035116 0.029458 -0.176541
v 0.006490 0.797458 -0.032629
v 0.068883 0.029458 -0.166298
v 0.012731 0.797458 -0.030736
v 0.100003 0.029458 -0.149665
v 0.018483 0.797458 -0.027662
v 0.127279 0.029458 -0.127279
v 0.023524 0.797458 -0.023524
v 0.149665 0.029458 -0.100003
v 0.027662 0.797458 -0.018483
v 0.166298 0.029458 -0.068883
v 0.030736 0.797458 -0.012731
v 0.176541 0.029458 -0.035116
v 0.032629 0.797458 -0.006490
v 0.180000 0.029458 -0.000000
v 0.033268 0.797458 -0.000000
v 0.176541 0.029458 0.035116
v 0.032629 0.797458 0.006490
v 0.166298 0.029458 0.068883
v 0.030736 0.797458 0.012731
v 0.149665 0.029458 0.100003
v 0.027662 0.797458 0.018483
v 0.127279 0.029458 0.127279
v 0.023524 0.797458 0.023524
v 0.100003 0.029458 0.149665
v 0.018483 0.797458 0.027662
v 0.068883 0.029458 0.166298
v 0.012731 0.797458 0.030736
v 0.035116 0.029458 0.176541
v 0.006490 0.797458 0.032629
v -0.000000 0.029458 0.180000
v 0.000000 0.797458 0.033268
v -0.035116 0.029458 0.176541
v -0.006490 0.797458 0.032629
v -0.068883 0.029458 0.166298
v -0.012731 0.797458 0.030736
v -0.100003 0.029458 0.149664
v -0.018483 0.797458 0.027662
v -0.127279 0.029458 0.127279
v -0.023524 0.797458 0.023524
v -0.149665 0.029458 0.100003
v -0.027662 0.797458 0.018483
v -0.166298 0.029458 0.068883
v -0.030736 0.797458 0.012731
v -0.176541 0.029458 0.035116
v -0.032629 0.797458 0.006490
v -0.180000 0.029458 -0.000000
v -0.033268 0.797458 -0.000000
v -0.176541 0.029458 -0.035116
v -0.032629 0.797458 -0.006490
v -0.166298 0.029458 -0.068883
v -0.030736 0.797458 -0.012731
v -0.149664 0.029458 -0.100003
v -0.027662 0.797458 -0.018483
v -0.127279 0.029458 -0.127279
v -0.023524 0.797458 -0.023524
v -0.100002 0.029458 -0.149665
v -0.018483 0.797458 -0.027662
v -0.068883 0.029458 -0.166298
v -0.012731 0.797458 -0.030736
v -0.035116 0.029458 -0.176541
v -0.006490 0.797458 -0.032629
vt 0.399680 0.774680
vt 0.600320 0.774680
vt 0.600320 0.975320
vt 0.399680 0.975320
vt 0.399680 0.524680
vt 0.600320 0.524680
vt 0.600320 0.725320
vt 0.399680 0.725320
vt 0.649680 0.524680
vt 0.850320 0.524680
vt 0.850320 0.725320
vt 0.649680 0.725320
vt 0.399680 0.024680
vt 0.600320 0.024680
vt 0.600320 0.225320
vt 0.399680 0.225320
vt 0.399680 0.274680
vt 0.600320 0.274680
vt 0.600320 0.475320
vt 0.399680 0.475320
vt 0.149680 0.725320
vt 0.149680 0.750000
vt 0.125000 0.725320
vt 0.625000 0.975320
vt 0.600320 1.000000
vt 0.149680 0.524680
vt 0.125000 0.524680
vt 0.149680 0.500000
vt 0.850320 0.500000
vt 0.875000 0.524680
vt 0.350320 0.725320
vt 0.375000 0.725320
vt 0.350320 0.750000
vt 0.649680 0.750000
vt 0.625000 0.725320
vt 0.350320 0.524680
vt 0.350320 0.500000
vt 0.375000 0.524680
vt 0.625000 0.524680
vt 0.649680 0.500000
vt 0.399680 1.000000
vt 0.875000 0.725320
vt 0.850320 0.750000
vt 1.000000 0.500000
vt 1.000000 1.000000
vt 0.968750 1.000000
vt 0.968750 0.500000
vt 0.937500 1.000000
vt 0.937500 0.500000
vt 0.906250 1.000000
vt 0.906250 0.500000
vt 0.875000 1.000000
vt 0.875000 0.500000
vt 0.843750 1.000000
vt 0.843750 0.500000
vt 0.812500 1.000000
vt 0.812500 0.500000
vt 0.781250 1.000000
vt 0.781250 0.500000
vt 0.750000 1.000000
vt 0.750000 0.500000
vt 0.718750 1.000000
vt 0.718750 0.500000
vt 0.687500 1.000000
vt 0.687500 0.500000
vt 0.656250 1.000000
vt 0.656250 0.500000
vt 0.625000 1.000000
vt 0.625000 0.500000
vt 0.593750 1.000000
vt 0.593750 0.500000
vt 0.562500 1.000000
vt 0.562500 0.500000
vt 0.531250 1.000000
vt 0.531250 0.500000
vt 0.500000 1.000000
vt 0.500000 0.500000
vt 0.468750 1.000000
vt 0.468750 0.500000
vt 0.437500 1.000000
vt 0.437500 0.500000
vt 0.406250 1.000000
vt 0.406250 0.500000
vt 0.375000 1.000000
vt 0.375000 0.500000
vt 0.343750 1.000000
vt 0.343750 0.500000
vt 0.312500 1.000000
vt 0.312500 0.500000
vt 0.281250 1.000000
vt 0.281250 0.500000
vt 0.250000 1.000000
vt 0.250000 0.500000
vt 0.218750 1.000000
vt 0.218750 0.500000
vt 0.187500 1.000000
vt 0.187500 0.500000
vt 0.156250 1.000000
vt 0.156250 0.500000
vt 0.125000 1.000000
vt 0.125000 0.500000
vt 0.093750 1.000000
vt 0.093750 0.500000
vt 0.062500 1.000000
vt 0.062500 0.500000
vt 0.296822 0.485388
vt 0.250000 0.490000
vt 0.203179 0.485389
vt 0.158156 0.471731
vt 0.116663 0.449553
vt 0.080295 0.419706
vt 0.050447 0.383337
vt 0.028269 0.341844
vt 0.014612 0.296822
vt 0.010000 0.250000
vt 0.014611 0.203179
vt 0.028269 0.158156
vt 0.050447 0.116663
vt 0.080294 0.080294
vt 0.116663 0.050447
vt 0.158156 0.028269
vt 0.203178 0.014612
vt 0.250000 0.010000
vt 0.296822 0.014612
vt 0.341844 0.028269
vt 0.383337 0.050447
vt 0.419706 0.080294
vt 0.449553 0.116663
vt 0.471731 0.158156
vt 0.485388 0.203178
vt 0.490000 0.250000
vt 0.485388 0.296822
vt 0.471731 0.341844
vt 0.449553 0.383337
vt 0.419706 0.419706
vt 0.383337 0.449553
vt 0.341844 0.471731
vt 0.031250 1.000000
vt 0.031250 0.500000
vt 0.000000 1.000000
vt 0.000000 0.500000
vt 0.750000 0.490000
vt 0.796822 0.485388
vt 0.841844 0.471731
vt 0.883337 0.449553
vt 0.919706 0.419706
vt 0.949553 0.383337
vt 0.971731 0.341844
vt 0.985388 0.296822
vt 0.990000 0.250000
vt 0.985388 0.203178
vt 0.971731 0.158156
vt 0.949553 0.116663
vt 0.919706 0.080294
vt 0.883337 0.050447
vt 0.841844 0.028269
vt 0.796822 0.014612
vt 0.750000 0.010000
vt 0.703178 0.014612
vt 0.658156 0.028269
vt 0.616663 0.050447
vt 0.580294 0.080294
vt 0.550447 0.116663
vt 0.528269 0.158156
vt 0.514611 0.203179
vt 0.510000 0.250000
vt 0.514612 0.296822
vt 0.528269 0.341844
vt 0.550447 0.383337
vt 0.580295 0.419706
vt 0.616663 0.449553
vt 0.658156 0.471731
vt 0.703179 0.485389
vn 0.0000 0.0000 1.0000
vn 1.0000 0.0000 0.0000
vn 0.0000 1.0000 0.0000
vn -1.0000 0.0000 0.0000
vn 0.0000 0.0000 -1.0000
vn 0.0029 -1.0000 -0.0029
vn -0.1098 0.9879 0.1098
vn 0.0029 -1.0000 0.0029
vn -0.1098 0.9879 -0.1098
vn -0.0029 -1.0000 -0.0029
vn 0.1098 0.9879 0.1098
vn -0.0029 -1.0000 0.0029
vn 0.1098 0.9879 -0.1098
vn 0.0029 -1.0000 0.0000
vn -0.7071 0.0000 0.7071
vn -0.1104 0.9939 0.0000
vn -0.7071 0.0000 -0.7071
vn 0.0000 -1.0000 0.0029
vn 0.0000 0.9939 -0.1104
vn 0.7071 0.0000 -0.7071
vn -0.0029 -1.0000 0.0000
vn 0.1104 0.9939 0.0000
vn 0.7071 0.0000 0.7071
vn 0.0000 -1.0000 -0.0029
vn 0.0000 0.9939 0.1104
vn 0.0000 -1.0000 0.0000
vn 0.0963 0.1868 -0.9777
vn 0.2852 0.1868 -0.9401
vn 0.4631 0.1868 -0.8664
vn 0.6232 0.1868 -0.7594
vn 0.7594 0.1868 -0.6232
vn 0.8664 0.1868 -0.4631
vn 0.9401 0.1868 -0.2852
vn 0.9777 0.1868 -0.0963
vn 0.9777 0.1868 0.0963
vn 0.9401 0.1868 0.2852
vn 0.8664 0.1868 0.4631
vn 0.7594 0.1868 0.6232
vn 0.6232 0.1868 0.7594
vn 0.4631 0.1868 0.8664
vn 0.2852 0.1868 0.9401
vn 0.0963 0.1868 0.9777
vn -0.0963 0.1868 0.9777
vn -0.2852 0.1868 0.9401
vn -0.4631 0.1868 0.8664
vn -0.6232 0.1868 0.7594
vn -0.7594 0.1868 0.6232
vn -0.8664 0.1868 0.4631
vn -0.9401 0.1868 0.2852
vn -0.9777 0.1868 0.0963
vn -0.9777 0.1868 -0.0963
vn -0.9401 0.1868 -0.2852
vn -0.8664 0.1868 -0.4631
vn -0.7594 0.1868 -0.6232
vn -0.6232 0.1868 -0.7594
vn -0.4631 0.1868 -0.8664
vn -0.2852 0.1868 -0.9401
vn -0.0963 0.1868 -0.9777
usemtl Material.002
s off
f 15/1/1 17/2/1 4/3/1 2/4/1
f 21/5/2 23/6/2 18/7/2 14/8/2
f 22/9/3 10/10/3 5/11/3 16/12/3
f 3/13/4 6/14/4 12/15/4 8/16/4
f 9/17/5 11/18/5 24/19/5 20/20/5
f 1/21/6 2/22/6 3/23/6
f 4/3/7 5/24/7 6/25/7
f 7/26/8 8/27/8 9/28/8
f 10/10/9 11/29/9 12/30/9
f 13/31/10 14/32/10 15/33/10
f 16/12/11 17/34/11 18/35/11
f 19/36/12 20/37/12 21/38/12
f 22/9/13 23/39/13 24/40/13
f 7/26/14 1/21/14 3/23/14 8/27/14
f 2/4/15 4/3/15 6/25/15 3/41/15
f 5/11/16 10/10/16 12/30/16 6/42/16
f 11/18/17 9/17/17 8/16/17 12/15/17
f 19/36/18 7/26/18 9/28/18 20/37/18
f 10/10/19 22/9/19 24/40/19 11/29/19
f 23/6/20 21/5/20 20/20/20 24/19/20
f 13/31/21 19/36/21 21/5/21 14/8/21
f 22/9/22 16/12/22 18/7/22 23/6/22
f 17/2/23 15/1/23 14/8/23 18/7/23
f 1/21/24 13/31/24 15/33/24 2/22/24
f 16/12/25 5/11/25 4/43/25 17/34/25
f 7/26/26 19/36/26 13/31/26 1/21/26
f 25/44/27 26/45/27 28/46/27 27/47/27
f 27/47/28 28/46/28 30/48/28 29/49/28
f 29/49/29 30/48/29 32/50/29 31/51/29
f 31/51/30 32/50/30 34/52/30 33/53/30
f 33/53/31 34/52/31 36/54/31 35/55/31
f 35/55/32 36/54/32 38/56/32 37/57/32
f 37/57/33 38/56/33 40/58/33 39/59/33
f 39/59/34 40/58/34 42/60/34 41/61/34
f 41/61/35 42/60/35 44/62/35 43/63/35
f 43/63/36 44/62/36 46/64/36 45/65/36
f 45/65/37 46/64/37 48/66/37 47/67/37
f 47/67/38 48/66/38 50/68/38 49/69/38
f 49/69/39 50/68/39 52/70/39 51/71/39
f 51/71/40 52/70/40 54/72/40 53/73/40
f 53/73/41 54/72/41 56/74/41 55/75/41
f 55/75/42 56/74/42 58/76/42 57/77/42
f 57/77/43 58/76/43 60/78/43 59/79/43
f 59/79/44 60/78/44 62/80/44 61/81/44
f 61/81/45 62/80/45 64/82/45 63/83/45
f 63/83/46 64/82/46 66/84/46 65/85/46
f 65/85/47 66/84/47 68/86/47 67/87/47
f 67/87/48 68/86/48 70/88/48 69/89/48
f 69/89/49 70/88/49 72/90/49 71/91/49
f 71/91/50 72/90/50 74/92/50 73/93/50
f 73/93/51 74/92/51 76/94/51 75/95/51
f 75/95/52 76/94/52 78/96/52 77/97/52
f 77/97/53 78/96/53 80/98/53 79/99/53
f 79/99/54 80/98/54 82/100/54 81/101/54
f 81/101/55 82/100/55 84/102/55 83/103/55
f 83/103/56 84/102/56 86/104/56 85/105/56
f 28/106/3 26/107/3 88/108/3 86/109/3 84/110/3 82/111/3 80/112/3 78/113/3 76/114/3 74/115/3 72/116/3 70/117/3 68/118/3 66/119/3 64/120/3 62/121/3 60/122/3 58/123/3 56/124/3 54/125/3 52/126/3 50/127/3 48/128/3 46/129/3 44/130/3 42/131/3 40/132/3 38/133/3 36/134/3 34/135/3 32/136/3 30/137/3
f 85/105/57 86/104/57 88/138/57 87/139/57
f 87/139/58 88/138/58 26/140/58 25/141/58
f 25/142/26 27/143/26 29/144/26 31/145/26 33/146/26 35/147/26 37/148/26 39/149/26 41/150/26 43/151/26 45/152/26 47/153/26 49/154/26 51/155/26 53/156/26 55/157/26 57/158/26 59/159/26 61/160/26 63/161/26 65/162/26 67/163/26 69/164/26 71/165/26 73/166/26 75/167/26 77/168/26 79/169/26 81/170/26 83/171/26 85/172/26 87/173/26
